<svg width="21" height="24" viewBox="0 0 21 24" fill="none" xmlns="http://www.w3.org/2000/svg">
<path id="Vector" d="M0 13.5C0 19.2993 4.70067 24 10.5 24C16.299 24 20.9996 19.2993 20.9996 13.5C20.9996 9.86278 19.1495 6.65808 16.34 4.77394C17.2028 4.37953 17.8019 3.51014 17.8019 2.50012C17.8019 1.11914 16.6827 0 15.3014 0C13.9215 0 12.8024 1.11914 12.8024 2.50012C12.8024 3.51525 13.4074 4.3883 14.2761 4.7798C15.3762 5.25661 16.3649 5.93006 17.2175 6.78263C18.0905 7.6553 18.7746 8.67155 19.2536 9.80241C19.7487 10.9732 19.9992 12.2168 19.9992 13.5C19.9992 14.7833 19.7487 16.0269 19.2536 17.1973C18.7746 18.3282 18.0906 19.3447 17.2175 20.2178C16.3444 21.0909 15.3278 21.775 14.1969 22.254C13.0265 22.7491 11.7829 22.9996 10.5 22.9996C9.21684 22.9996 7.9732 22.7491 6.80278 22.254C5.67117 21.775 4.65534 21.0909 3.78225 20.2178C2.90991 19.3447 2.22436 18.3281 1.74609 17.1973C1.251 16.0268 0.99975 14.7832 0.99975 13.5C0.99975 12.2168 1.25095 10.9732 1.74609 9.80236C2.22436 8.6715 2.90991 7.65525 3.78225 6.78258C4.63481 5.93002 5.62355 5.25548 6.72291 4.77905C7.59084 4.38684 8.19581 3.51417 8.19581 2.50012C8.19581 1.11914 7.07592 0 5.69531 0C4.3147 0 3.19556 1.11914 3.19556 2.50012C3.19556 3.51084 3.79542 4.38061 4.6582 4.77464C1.84936 6.65883 0 9.86316 0 13.5ZM13.8014 2.50012C13.8014 1.67287 14.4752 1.00013 15.3014 1.00013C16.129 1.00013 16.8014 1.67287 16.8014 2.50012C16.8014 3.32705 16.129 4.00012 15.3014 4.00012C14.4752 4.00012 13.8014 3.32705 13.8014 2.50012ZM4.19531 2.50012C4.19531 1.67287 4.86839 1.00013 5.69531 1.00013C6.52223 1.00013 7.19531 1.67287 7.19531 2.50012C7.19531 3.32705 6.52223 4.00012 5.69531 4.00012C4.86839 4.00012 4.19531 3.32705 4.19531 2.50012Z" fill="url(#paint0_linear_68_109)"/>
<defs>
<linearGradient id="paint0_linear_68_109" x1="10.4998" y1="0" x2="10.4998" y2="24" gradientUnits="userSpaceOnUse">
<stop stop-color="#FF8653"/>
<stop offset="0.739164" stop-color="#007196"/>
<stop offset="1" stop-color="#72DDFF"/>
</linearGradient>
</defs>
</svg>
