<svg width="15" height="5" viewBox="0 0 15 5" fill="none" xmlns="http://www.w3.org/2000/svg">
<g id="Group">
<path id="Vector" d="M0 2.50019C0 1.11917 1.11917 0 2.50056 0C3.8805 0 5.00037 1.11917 5.00037 2.50019C5.00037 3.88083 3.88045 5 2.50056 5C1.11917 5 0 3.88083 0 2.50019Z" fill="url(#paint0_linear_68_110)"/>
<path id="Vector_2" d="M9.60912 2.50019C9.60912 1.11917 10.7283 0 12.1097 0C13.4896 0 14.6102 1.11917 14.6102 2.50019C14.6102 3.88083 13.4896 5 12.1097 5C10.7283 5 9.60912 3.88083 9.60912 2.50019Z" fill="url(#paint1_linear_68_110)"/>
</g>
<defs>
<linearGradient id="paint0_linear_68_110" x1="2.55433" y1="-0.632828" x2="2.09482" y2="4.96673" gradientUnits="userSpaceOnUse">
<stop stop-color="#72DDFF"/>
<stop offset="1" stop-color="#FF8856"/>
</linearGradient>
<linearGradient id="paint1_linear_68_110" x1="12.1638" y1="-0.632828" x2="11.7044" y2="4.96674" gradientUnits="userSpaceOnUse">
<stop stop-color="#72DDFF"/>
<stop offset="1" stop-color="#FF8856"/>
</linearGradient>
</defs>
</svg>
