<svg width="21" height="24" viewBox="0 0 21 24" fill="none" xmlns="http://www.w3.org/2000/svg">
<path id="Vector" d="M20.9996 10.5C20.9996 4.70105 16.299 0 10.5 0C4.70067 0 0 4.70105 0 10.5C0 14.1372 1.85011 17.3423 4.65966 19.2261C3.79688 19.6201 3.19772 20.4902 3.19772 21.4995C3.19772 22.8809 4.31686 24 5.69822 24C7.07812 24 8.19797 22.8809 8.19797 21.4995C8.19797 20.4844 7.59225 19.6113 6.72361 19.2202C5.6235 18.7434 4.63477 18.0703 3.7822 17.2178C2.90916 16.3448 2.22511 15.3281 1.74609 14.1973C1.25095 13.0268 1.0005 11.7828 1.0005 10.5C1.0005 9.21717 1.251 7.97316 1.74609 6.80236C2.22511 5.6715 2.90916 4.65525 3.78225 3.78258C4.6553 2.90953 5.67188 2.22473 6.80278 1.74609C7.9732 1.251 9.21684 1.00013 10.5 1.00013C11.7829 1.00013 13.0265 1.251 14.1969 1.74609C15.3292 2.22473 16.3444 2.90953 17.2175 3.78258C18.0905 4.65525 18.7761 5.6715 19.2536 6.80236C19.7487 7.97316 20.0007 9.21717 20.0007 10.5C20.0007 11.7828 19.7488 13.0268 19.2536 14.1973C18.7761 15.3281 18.0906 16.3447 17.2175 17.2178C16.3649 18.0704 15.3762 18.7441 14.2775 19.221C13.4089 19.6128 12.8039 20.4858 12.8039 21.4995C12.8039 22.8809 13.9245 24 15.3044 24C16.6857 24 17.8049 22.8809 17.8049 21.4995C17.8049 20.4888 17.2043 19.6194 16.3415 19.2253C19.151 17.3408 20.9996 14.1372 20.9996 10.5ZM7.19822 21.4995C7.19822 22.3271 6.52514 22.9995 5.69822 22.9995C4.87059 22.9995 4.19822 22.3271 4.19822 21.4995C4.19822 20.6733 4.87059 19.9995 5.69822 19.9995C6.52514 19.9995 7.19822 20.6733 7.19822 21.4995ZM16.8043 21.4995C16.8043 22.3271 16.1319 22.9995 15.3043 22.9995C14.4781 22.9995 13.8043 22.3271 13.8043 21.4995C13.8043 20.6733 14.4781 19.9995 15.3043 19.9995C16.1319 19.9995 16.8043 20.6733 16.8043 21.4995Z" fill="url(#paint0_linear_68_88)"/>
<defs>
<linearGradient id="paint0_linear_68_88" x1="10.4998" y1="0" x2="10.4998" y2="15.96" gradientUnits="userSpaceOnUse">
<stop stop-color="#6DCDEC"/>
<stop offset="0.5" stop-color="#007196"/>
<stop offset="1" stop-color="#F3966F"/>
</linearGradient>
</defs>
</svg>
