<svg width="24" height="24" viewBox="0 0 24 24" fill="none" xmlns="http://www.w3.org/2000/svg">
<g id="Venus Icon">
<path id="Vector" d="M15.5517 14.6486H13.4231V13.2855C15.7401 12.7904 17.5 10.4734 17.5 7.69336C17.5 4.55413 15.2569 2 12.5 2C9.74316 2 7.5 4.55413 7.5 7.69336C7.5 10.4733 9.25993 12.7904 11.5769 13.2855V14.6486H9.44837C8.93841 14.6486 8.52529 15.119 8.52529 15.6997C8.52529 16.2803 8.93837 16.7508 9.44837 16.7508H11.5769V20.9489C11.5769 21.5295 11.9901 22 12.5 22C13.01 22 13.4231 21.5295 13.4231 20.9489V16.7508H15.5517C16.0616 16.7508 16.4748 16.2803 16.4748 15.6997C16.4748 15.119 16.0616 14.6486 15.5517 14.6486ZM9.34614 7.69336C9.34614 5.71299 10.7609 4.10217 12.5 4.10217C14.2392 4.10217 15.6539 5.71299 15.6539 7.69336C15.6539 9.67372 14.2392 11.2846 12.5 11.2846C10.7609 11.2845 9.34614 9.67372 9.34614 7.69336Z" fill="url(#paint0_linear_68_15)"/>
</g>
<defs>
<linearGradient id="paint0_linear_68_15" x1="9.42308" y1="4.5" x2="15.0039" y2="13.0355" gradientUnits="userSpaceOnUse">
<stop stop-color="#72DDFF"/>
<stop offset="0.407516" stop-color="#007196"/>
<stop offset="1" stop-color="#F38558"/>
</linearGradient>
</defs>
</svg>
