<svg width="17" height="19" viewBox="0 0 17 19" fill="none" xmlns="http://www.w3.org/2000/svg">
<g id="Group">
<path id="Vector" d="M14.7871 5.25315L16.625 5.24974L16.6175 0.00850739L12.0318 0L12.0289 2.10059L13.4852 2.10332L11.3276 4.56936C10.1036 3.49092 8.61129 2.90632 7.04029 2.90632C5.15985 2.90632 3.39179 3.7433 2.06201 5.26318L3.36156 6.74851C4.34403 5.62559 5.65074 5.00696 7.04029 5.00733C8.42985 5.00696 9.73656 5.62559 10.719 6.74851C11.7018 7.8718 12.2427 9.36495 12.2427 10.9535C12.2427 12.5414 11.7015 14.0349 10.719 15.1578L12.0186 16.6431C13.3484 15.1232 14.0806 13.1024 14.0806 10.9532C14.0806 9.15846 13.5697 7.45363 12.627 6.05495L14.7848 3.5887L14.7871 5.25315Z" fill="url(#paint0_linear_68_24)"/>
<path id="Vector_2" d="M7.04035 16.8997C4.17156 16.8997 1.83758 14.232 1.8379 10.9535C1.8379 9.36495 2.37882 7.8718 3.36162 6.74851L2.06207 5.26318C0.732292 6.78306 0 8.80383 0 10.9532C0 15.3906 3.15826 19.0004 7.04035 19C8.9208 19 10.6889 18.163 12.0186 16.6431L10.7191 15.1578C9.7363 16.281 8.42991 16.8993 7.04035 16.8997Z" fill="url(#paint1_linear_68_24)"/>
</g>
<defs>
<linearGradient id="paint0_linear_68_24" x1="9.35152" y1="-1.17662" x2="9.34103" y2="16.6431" gradientUnits="userSpaceOnUse">
<stop stop-color="#72DDFF"/>
<stop offset="0.442051" stop-color="#007196"/>
<stop offset="0.813531" stop-color="#F38558"/>
</linearGradient>
<linearGradient id="paint1_linear_68_24" x1="5.47587" y1="8.58551" x2="6.17201" y2="18.9891" gradientUnits="userSpaceOnUse">
<stop stop-color="#007196"/>
<stop offset="0.233888" stop-color="#72DDFF"/>
<stop offset="0.876121" stop-color="#F38558"/>
</linearGradient>
</defs>
</svg>
