<svg width="16" height="16" viewBox="0 0 16 16" fill="none" xmlns="http://www.w3.org/2000/svg">
<g id="Group">
<path id="Vector" d="M15.6406 0.352516C14.8937 -0.397477 13.3999 0.0457054 11.0233 1.71613C10.0388 1.20478 8.95234 0.897969 7.79804 0.897969C5.96471 0.897969 4.23323 1.61386 2.94312 2.90927C0.770266 5.09105 0.362858 8.3637 1.72089 10.9886C-0.485886 14.159 -0.11244 15.1817 0.362858 15.6249C0.600523 15.8635 0.940008 15.9999 1.31349 15.9999C2.06041 15.9999 3.04497 15.5567 4.43693 14.7045C4.6746 14.534 4.94619 14.3636 5.21779 14.159C6.0326 14.4999 6.91531 14.6704 7.79804 14.6704C9.63138 14.6704 11.3629 13.9545 12.653 12.6591C14.656 10.6478 15.1653 7.68191 14.1468 5.19332C14.3505 4.92061 14.5202 4.64787 14.7239 4.37516C16.048 2.32972 16.3196 1.03431 15.6406 0.352516ZM1.31345 14.6363C1.34742 14.3636 1.55112 13.6136 2.50172 12.1477C2.63753 12.3181 2.77331 12.4886 2.94308 12.659C3.21468 12.9317 3.52023 13.1704 3.82579 13.409C2.6036 14.2272 1.68693 14.6363 1.31345 14.6363ZM4.98012 12.5909C4.60667 12.3522 4.2332 12.0795 3.89371 11.7386C1.72086 9.55682 1.72086 6.04555 3.89371 3.86378C4.91223 2.80697 6.3042 2.22745 7.79804 2.22745C9.29189 2.22745 10.6839 2.80697 11.7363 3.82968C12.0758 4.17059 12.3814 4.54557 12.5851 4.95465C11.7024 6.11372 10.4802 7.51141 8.98631 9.01136C7.49249 10.5113 6.13445 11.7045 4.98012 12.5909ZM11.7363 11.7045C10.6838 12.7613 9.2579 13.375 7.79804 13.375C7.35668 13.375 6.91534 13.3068 6.47397 13.2045C7.6283 12.2841 8.85052 11.1932 10.0388 10C11.227 8.80689 12.2795 7.61371 13.1962 6.45467C13.6375 8.2955 13.1622 10.2727 11.7363 11.7045ZM13.4338 3.82968C13.1962 3.48876 12.9585 3.18195 12.653 2.90924C12.5172 2.77287 12.3474 2.63653 12.2116 2.50016C13.6375 1.54563 14.3845 1.30702 14.6561 1.30702C14.6561 1.68203 14.2826 2.56836 13.4338 3.82968Z" fill="url(#paint0_linear_68_41)"/>
</g>
<defs>
<linearGradient id="paint0_linear_68_41" x1="7.99994" y1="0" x2="8.08059" y2="14.3358" gradientUnits="userSpaceOnUse">
<stop stop-color="#6DCDEC"/>
<stop offset="0.379771" stop-color="#007196"/>
<stop offset="1" stop-color="#FF8856"/>
</linearGradient>
</defs>
</svg>
