<svg width="126" height="130" viewBox="0 0 126 130" fill="none" xmlns="http://www.w3.org/2000/svg">
<g id="Ellipse 9">
<mask id="path-1-inside-1_70_537" fill="white">
<path d="M81.9415 126.902C69.7272 130.375 56.7491 130.121 44.6485 126.17C32.5479 122.22 21.8682 114.751 13.96 104.708C6.05181 94.6654 1.27024 82.4996 0.219978 69.7495C-0.830282 56.9993 1.89793 44.2373 8.05961 33.0774C14.2213 21.9174 23.5397 12.8607 34.8365 7.0526C46.1332 1.24447 58.901 -1.05426 71.5251 0.447118C84.1493 1.94849 96.0629 7.18253 105.759 15.4874C115.456 23.7922 122.5 34.7948 126 47.1038L108.712 52.0201C106.192 43.1567 101.12 35.2341 94.1376 29.2541C87.1555 23.274 78.5769 19.5052 69.4866 18.4241C60.3964 17.343 51.2028 18.9982 43.0683 23.1805C34.9339 27.3627 28.224 33.8842 23.7872 41.9201C19.3503 49.956 17.3858 59.1455 18.1421 68.3265C18.8984 77.5075 22.3414 86.2676 28.0358 93.4991C33.7303 100.731 41.4204 106.109 50.1336 108.953C58.8469 111.798 68.192 111.981 76.9871 109.48L81.9415 126.902Z"/>
</mask>
<path d="M81.9415 126.902C69.7272 130.375 56.7491 130.121 44.6485 126.17C32.5479 122.22 21.8682 114.751 13.96 104.708C6.05181 94.6654 1.27024 82.4996 0.219978 69.7495C-0.830282 56.9993 1.89793 44.2373 8.05961 33.0774C14.2213 21.9174 23.5397 12.8607 34.8365 7.0526C46.1332 1.24447 58.901 -1.05426 71.5251 0.447118C84.1493 1.94849 96.0629 7.18253 105.759 15.4874C115.456 23.7922 122.5 34.7948 126 47.1038L108.712 52.0201C106.192 43.1567 101.12 35.2341 94.1376 29.2541C87.1555 23.274 78.5769 19.5052 69.4866 18.4241C60.3964 17.343 51.2028 18.9982 43.0683 23.1805C34.9339 27.3627 28.224 33.8842 23.7872 41.9201C19.3503 49.956 17.3858 59.1455 18.1421 68.3265C18.8984 77.5075 22.3414 86.2676 28.0358 93.4991C33.7303 100.731 41.4204 106.109 50.1336 108.953C58.8469 111.798 68.192 111.981 76.9871 109.48L81.9415 126.902Z" stroke="url(#paint0_linear_70_537)" stroke-width="2" mask="url(#path-1-inside-1_70_537)"/>
</g>
<defs>
<linearGradient id="paint0_linear_70_537" x1="126" y1="47.1038" x2="2.48614" y2="82.2285" gradientUnits="userSpaceOnUse">
<stop stop-color="#7385F8"/>
<stop offset="1" stop-color="#FF80F2" stop-opacity="0.2"/>
</linearGradient>
</defs>
</svg>
